<?xml version="1.0" encoding="UTF-8"?>
<svg version="1.1" xmlns="http://www.w3.org/2000/svg" width="234" height="300">
<path d="M0 0 C4.13456708 2.61701062 5.67096343 5.91611484 7.0625 10.5 C6.98573748 14.79870126 6.17147636 17.2874759 4 21 C0.15950275 24.48324169 -2.9694957 25.64513909 -8.0390625 25.40234375 C-11.24547905 24.7444535 -13.46667268 22.99047147 -16 21 C-19.14990159 19.42504921 -21.27524296 20.80829729 -24.5625 21.875 C-51.53567536 30.97026128 -74.04892797 49.58376763 -87.06640625 74.93359375 C-90.46506173 81.86671339 -92.75693311 88.52311036 -95 96 C-70.745 96.495 -70.745 96.495 -46 97 C-45.01 95.02 -45.01 95.02 -44 93 C-41.36673543 90.36673543 -39.67446899 90.28819365 -36 90 C-32.68741503 90.78871071 -31.16780524 91.84126532 -28.6875 94.1875 C-26.49531702 97.84113829 -26.3366561 99.79882196 -27 104 C-29.33581872 107.70982973 -30.80743715 109.60247905 -35 111 C-39.10012005 111 -41.6575483 110.11099451 -44.8125 107.5 C-46 106 -46 106 -46 104 C-63.16 104 -80.32 104 -98 104 C-98.061875 109.135625 -98.12375 114.27125 -98.1875 119.5625 C-98.21481201 121.14877197 -98.24212402 122.73504395 -98.27026367 124.36938477 C-98.32563419 133.99492462 -97.27063998 142.63626749 -95 152 C-94.57110474 153.80803101 -94.57110474 153.80803101 -94.13354492 155.65258789 C-93.15896141 160.08989999 -93.15896141 160.08989999 -91 164 C-87.03183731 166.15163857 -83.45619581 166.35686256 -79.10595703 165.29077148 C-75.79382274 164.0927264 -72.59387204 162.74228772 -69.375 161.3125 C-68.20308105 160.81298828 -67.03116211 160.31347656 -65.82373047 159.79882812 C-47.00133946 151.81111469 -47.00133946 151.81111469 -28.9921875 142.1875 C-27 141 -27 141 -25 141 C-25 140.34 -25 139.68 -25 139 C-25.60730957 138.89405518 -26.21461914 138.78811035 -26.84033203 138.67895508 C-32.20400955 137.6833733 -37.23293342 136.31979781 -42.38378906 134.53759766 C-51.32415092 131.48679993 -57.98589147 129.93265835 -67 134 C-67.0825 135.093125 -67.165 136.18625 -67.25 137.3125 C-68 141 -68 141 -69.6875 142.875 C-73.88969288 144.91931005 -76.70112816 145.43295728 -81.1875 143.9375 C-84.59980465 141.58680124 -85.69396141 139.91811578 -87 136 C-87 132.07561572 -86.24451616 130.35149198 -84 127.125 C-80.00671941 124.29642625 -76.76432516 124.19032041 -72 125 C-71.39945801 125.38309326 -70.79891602 125.76618652 -70.18017578 126.16088867 C-67.97597325 127.28428637 -67.97597325 127.28428637 -65.65014648 126.13574219 C-64.75368408 125.69391602 -63.85722168 125.25208984 -62.93359375 124.796875 C-53.82304096 121.5040708 -45.80723588 125.26816041 -37.0625 128.25 C-34.55805724 129.07010918 -32.05067121 129.88016852 -29.54112244 130.68450928 C-27.99035766 131.1851221 -26.44302263 131.69652836 -24.8999176 132.22027588 C-19.54950543 134.0248706 -19.54950543 134.0248706 -14 134 C-11.42517823 132.74027513 -11.42517823 132.74027513 -8.91796875 130.9375 C-7.98662109 130.30585938 -7.05527344 129.67421875 -6.09570312 129.0234375 C-5.13599609 128.35570312 -4.17628906 127.68796875 -3.1875 127 C-2.20845703 126.33226563 -1.22941406 125.66453125 -0.22070312 124.9765625 C2.19344786 123.32787402 4.59976161 121.66884888 7 120 C3.99381987 111.96955907 0.802557 104.09229168 -2.76391602 96.29492188 C-4.08688902 93.35188463 -5 91.26606793 -5 88 C-6.093125 87.9175 -7.18625 87.835 -8.3125 87.75 C-12 87 -12 87 -13.9375 85.5 C-15.57484185 81.64743094 -15.7766104 78.1101739 -15 74 C-12.6066679 70.62117821 -10.96721278 69.32926392 -7.0625 68 C-3.15544281 68 -1.21525285 68.78504804 2 71 C4.25132954 74.26805901 5.05587735 76.08733667 4.8125 80.0625 C4 83 4 83 2.81103516 85.29760742 C1.69818689 89.00565001 2.6573407 90.67155735 4.2109375 94.17578125 C4.71367188 95.33271484 5.21640625 96.48964844 5.734375 97.68164062 C6.27578125 98.87982422 6.8171875 100.07800781 7.375 101.3125 C7.91566186 102.54161542 8.45474288 103.77142752 8.9921875 105.00195312 C10.31272084 108.00852456 11.64902371 111.00701432 13 114 C19.3958546 114 27.13550601 104.1556159 31.8125 99.875 C32.35108643 99.38483398 32.88967285 98.89466797 33.44458008 98.38964844 C34.99291066 96.95436447 36.49786181 95.48338958 38 94 C39.40378906 92.6696875 39.40378906 92.6696875 40.8359375 91.3125 C43.89176065 86.63499453 43.77910453 82.60185678 43.8125 77.125 C43.83763672 76.15046875 43.86277344 75.1759375 43.88867188 74.171875 C43.94727558 71.78084372 43.98374991 69.39163153 44 67 C38.4099934 65.80469769 35.08799894 66.31464383 29.8125 68.4375 C25.80407799 70.0313146 23.34391767 71 19 71 C17.8239997 68.6479994 17.87915459 67.26265599 17.88647461 64.64208984 C17.88658791 63.29091568 17.88658791 63.29091568 17.88670349 61.91244507 C17.89186478 60.93844757 17.89702606 59.96445007 17.90234375 58.9609375 C17.9037587 57.96494537 17.90517365 56.96895325 17.90663147 55.94277954 C17.91224064 52.75348947 17.9247947 49.56426894 17.9375 46.375 C17.94251382 44.21614685 17.94707693 42.05729259 17.95117188 39.8984375 C17.96221305 34.5989345 17.97896012 29.29947222 18 24 C17.07767578 23.81050781 17.07767578 23.81050781 16.13671875 23.6171875 C13.2283294 22.77710429 11.9426921 21.27763901 10 19 C8.75866376 15.27599129 8.45888514 11.86824 9 8 C11.01502889 4.24787724 12.45466142 2.36355905 16 0 C20.36895142 -0.65157046 24.97122501 -0.98495652 29.01953125 0.98046875 C32.01023122 3.34537749 33.29496334 5.33380935 34 9 C34.54785156 9.07476562 35.09570312 9.14953125 35.66015625 9.2265625 C57.10876145 12.78389214 75.47766221 25.38920889 91 40 C91.99773437 40.88365234 91.99773437 40.88365234 93.015625 41.78515625 C108.1549695 55.78597281 118.02874389 76.24275276 123 96 C123.18546387 96.69311279 123.37092773 97.38622559 123.56201172 98.1003418 C125.33760154 105.59314078 125.37224228 113.11798302 125.37060547 120.77416992 C125.37494619 123.03447778 125.41127763 125.29277423 125.44921875 127.55273438 C125.54421006 140.00879836 123.43065198 151.45148527 119.1875 163.1875 C117.92499157 167.24081653 118.07245397 168.95252642 119 173 C119.49661449 177.89520002 119.48794918 181.08916153 117.125 185.5 C115 188 115 188 113 189 C113.00967804 189.59611084 113.01935608 190.19222168 113.02932739 190.80639648 C113.12058859 197.03677113 113.14136946 203.26461333 113.12207031 209.49560547 C113.12401153 211.81762967 113.14364953 214.13971158 113.18164062 216.46142578 C113.47703974 235.60492973 113.47703974 235.60492973 110.11572266 241.05541992 C107.52199477 243.16486435 105.0033864 244.54106942 102 246 C100.0256237 247.36534824 98.07016385 248.7583867 96.1328125 250.17578125 C94.13273103 251.55834409 92.13010692 252.93723561 90.125 254.3125 C88.10635871 255.70382934 86.08811327 257.09573322 84.0703125 258.48828125 C83.19133301 259.09196533 82.31235352 259.69564941 81.40673828 260.31762695 C79.8439822 261.41003435 78.3082942 262.54262463 76.80810547 263.71948242 C75 265 75 265 73 265 C73.01047363 265.95366455 73.02094727 266.9073291 73.03173828 267.88989258 C73.06794501 271.42891688 73.09090284 274.9679248 73.10986328 278.50708008 C73.11991935 280.03868361 73.133566 281.57026795 73.15087891 283.10180664 C73.17514498 285.30359636 73.18648688 287.50513219 73.1953125 289.70703125 C73.21079636 290.73374687 73.21079636 290.73374687 73.22659302 291.78120422 C73.22745382 295.43061661 73.08567666 296.87148502 71 300 C68.79170227 300.37473011 68.79170227 300.37473011 65.98950195 300.3742218 C64.92945953 300.38123611 63.86941711 300.38825043 62.7772522 300.39547729 C61.60939178 300.38783356 60.44153137 300.38018982 59.23828125 300.37231445 C57.39923721 300.37779045 57.39923721 300.37779045 55.52304077 300.38337708 C52.15516262 300.39010805 48.78783408 300.38334881 45.42000961 300.37004495 C41.90020439 300.35874873 38.38041383 300.36283653 34.8605957 300.36479187 C28.94900767 300.36567543 23.03753418 300.35458163 17.12597656 300.33618164 C10.28562304 300.31501301 3.44543736 300.31150374 -3.39494228 300.3177436 C-9.96771403 300.323433 -16.5404265 300.31779662 -23.1131897 300.30657005 C-25.91379896 300.30191842 -28.71437204 300.30105264 -31.51498413 300.3031559 C-35.42281373 300.30538461 -39.33048281 300.29094859 -43.23828125 300.2746582 C-44.40614166 300.27713562 -45.57400208 300.27961304 -46.7772522 300.28216553 C-47.83729462 300.27508072 -48.89733704 300.26799591 -49.98950195 300.26069641 C-50.91422806 300.25864354 -51.83895416 300.25659067 -52.79170227 300.25447559 C-55 300 -55 300 -57 298 C-57.03320312 295.04174805 -57.03320312 295.04174805 -56.78125 291.26171875 C-55.65823059 276.87664799 -55.65823059 276.87664799 -59.49902344 263.42675781 C-63.43892375 259.31670243 -68.27862994 256.83727315 -73.35400391 254.3671875 C-78.03849955 251.94670627 -82.25422075 248.83703237 -86.5625 245.8125 C-89.99357443 243.51081787 -89.99357443 243.51081787 -93.42797852 241.21411133 C-95 240 -95 240 -96 238 C-96.09306947 236.47899134 -96.12513235 234.95402898 -96.12597656 233.43017578 C-96.13168671 232.00827438 -96.13168671 232.00827438 -96.13751221 230.55764771 C-96.13853943 229.53057709 -96.13956665 228.50350647 -96.140625 227.4453125 C-96.15894989 225.28254153 -96.1785199 223.11978081 -96.19921875 220.95703125 C-96.2282249 217.53774714 -96.25000084 214.1191223 -96.25048828 210.69970703 C-96.25381576 207.40597642 -96.28832386 204.11377793 -96.328125 200.8203125 C-96.3210553 199.79729034 -96.3139856 198.77426819 -96.30670166 197.72024536 C-96.27812975 191.98511981 -96.27812975 191.98511981 -99.4609375 187.4465332 C-100.29882812 186.96917725 -101.13671875 186.49182129 -102 186 C-103.90214575 183.11813461 -104.27318511 180.86310056 -104.25 177.4375 C-104.25515625 176.67308594 -104.2603125 175.90867188 -104.265625 175.12109375 C-104 173 -104 173 -102 170 C-102.1762322 167.72464609 -102.1762322 167.72464609 -103 165 C-103.17917969 164.33742187 -103.35835938 163.67484375 -103.54296875 162.9921875 C-104.18157764 160.65740087 -104.83852117 158.32840548 -105.5 156 C-105.94966944 154.41716357 -106.39763456 152.83384179 -106.84375 151.25 C-107.04162109 150.55390625 -107.23949219 149.8578125 -107.44335938 149.140625 C-108.74447243 144.13704639 -109.18443021 139.39805429 -109.23828125 134.234375 C-109.246353 133.48271057 -109.25442474 132.73104614 -109.26274109 131.956604 C-109.27654134 130.36301952 -109.28728156 128.76940598 -109.29516602 127.17578125 C-109.30656913 125.57998709 -109.32683053 123.98422741 -109.35668945 122.38867188 C-109.94168861 91.04056081 -97.4507642 63.11558516 -75.96801758 40.56518555 C-69.24853764 33.71487246 -62.27137746 27.9246299 -54 23 C-53.36223633 22.62004883 -52.72447266 22.24009766 -52.06738281 21.84863281 C-43.34220428 16.75299412 -34.67843335 12.7999554 -24.88793945 10.20239258 C-19.60930266 8.68456797 -17.79754081 6.92341099 -15 2 C-10.30771115 -1.12819257 -5.4769909 -0.93932562 0 0 Z M-9.6875 8.1875 C-11.4374512 10.60409928 -11.37447615 12.07908607 -11 15 C-10.34 15.66 -9.68 16.32 -9 17 C-5.40320934 16.67673447 -5.40320934 16.67673447 -2 16 C-1.67 14.02 -1.34 12.04 -1 10 C-5.01886949 6.59521335 -5.01886949 6.59521335 -9.6875 8.1875 Z M17 9 C16.58333333 12 16.58333333 12 17 15 C18.82703227 17.2491908 18.82703227 17.2491908 21.5 17.25 C24.17296773 17.2491908 24.17296773 17.2491908 26 15 C26.41666667 12 26.41666667 12 26 9 C21.98990901 6.32660601 21.01009099 6.32660601 17 9 Z M32 19 C31.0409375 19.9590625 31.0409375 19.9590625 30.0625 20.9375 C28 23 28 23 25 24 C25 36.87 25 49.74 25 63 C36.61394624 60.62297785 36.61394624 60.62297785 39 55.4375 C39.495 53.7359375 39.495 53.7359375 40 52 C42.44997979 49.28752237 43.78074936 49.031891 47.4375 48.5 C51 49 51 49 53.9375 51 C56.23474186 54.34144271 56.73629786 56.1007559 56.50390625 60.06640625 C55.65742469 63.31453318 53.53910265 64.95633201 51 67 C49.71387324 68.05978933 49.71387324 68.05978933 49.90234375 70.50390625 C49.91394531 71.51324219 49.92554688 72.52257812 49.9375 73.5625 C49.94652344 74.57441406 49.95554688 75.58632812 49.96484375 76.62890625 C49.97644531 77.41136719 49.98804688 78.19382813 50 79 C53.44188729 75.02681467 55.7682238 70.93265681 58.0625 66.25 C58.41320557 65.54061279 58.76391113 64.83122559 59.12524414 64.1003418 C63.19499045 55.73416767 66.17588218 47.5982213 66.0625 38.1875 C66.05347656 37.21167969 66.04445312 36.23585938 66.03515625 35.23046875 C66.02355469 34.49441406 66.01195312 33.75835937 66 33 C56.47298371 26.9652019 43.6183723 19 32 19 Z M76 41 C75.79246094 42.0415625 75.58492187 43.083125 75.37109375 44.15625 C67.81359404 80.09983702 43.4077432 107.22408426 14 128 C13.28618164 128.5048291 12.57236328 129.0096582 11.83691406 129.52978516 C-4.36641932 140.87211853 -21.47840307 150.47315378 -39.25 159.125 C-40.16316986 159.57034592 -40.16316986 159.57034592 -41.0947876 160.02468872 C-47.74569228 163.24883254 -54.40206313 166.22517963 -61.33984375 168.79296875 C-63.07089355 169.43758057 -63.07089355 169.43758057 -64.83691406 170.09521484 C-67.01540137 170.88667052 -69.20611533 171.64550292 -71.40917969 172.36572266 C-74.21224938 173.37425171 -76.5718271 174.27195712 -79 176 C-80.02319188 178.36422179 -80.35099606 180.23774933 -80.4543457 182.80541992 C-81 185 -81 185 -83.48730469 186.68383789 C-86.27362007 189.25221858 -86.39778436 189.69952308 -86.72631836 193.27441406 C-86.79304663 195.02061967 -86.82897801 196.76817869 -86.83984375 198.515625 C-86.85648575 199.44542175 -86.87312775 200.37521851 -86.89027405 201.33319092 C-86.91556702 203.29996398 -86.92731729 205.26695119 -86.92651367 207.23388672 C-86.93742199 210.22858496 -87.02808004 213.21397262 -87.12304688 216.20703125 C-87.51597218 226.07178779 -87.51597218 226.07178779 -83.984375 234.95141602 C-81.42345752 237.02774947 -78.93776161 238.51629281 -76 240 C-74.6348064 240.9374841 -73.28181848 241.89314602 -71.9453125 242.87109375 C-70.67409673 243.72986049 -69.40064877 244.58533213 -68.125 245.4375 C-50.87857868 257.12142132 -50.87857868 257.12142132 -47 261 C-46.84141158 263.14386657 -46.74870702 265.29266838 -46.68359375 267.44140625 C-46.64169922 268.74658203 -46.59980469 270.05175781 -46.55664062 271.39648438 C-46.51682392 272.7851533 -46.47711175 274.17382522 -46.4375 275.5625 C-46.39432011 276.95509183 -46.350706 278.34767028 -46.30664062 279.74023438 C-46.20014194 283.16002549 -46.09952944 286.57999896 -46 290 C-40.39 290 -34.78 290 -29 290 C-28.67 285.05 -28.34 280.1 -28 275 C-25.36 275 -22.72 275 -20 275 C-18.58365167 277.83269666 -18.6536995 280.47466438 -18.4375 283.625 C-18.31181641 285.40777344 -18.31181641 285.40777344 -18.18359375 287.2265625 C-18.12300781 288.14179688 -18.06242187 289.05703125 -18 290 C-14.68751813 290.02888146 -11.37506833 290.04675799 -8.0625 290.0625 C-7.11697266 290.07087891 -6.17144531 290.07925781 -5.19726562 290.08789062 C-4.29814453 290.09111328 -3.39902344 290.09433594 -2.47265625 290.09765625 C-1.64000244 290.10289307 -0.80734863 290.10812988 0.05053711 290.11352539 C2.00516798 290.21643292 2.00516798 290.21643292 3 289 C3.14386104 287.67113927 3.22676288 286.33551413 3.28125 285 C3.31863281 284.195625 3.35601562 283.39125 3.39453125 282.5625 C3.42933594 281.716875 3.46414062 280.87125 3.5 280 C3.56860509 278.33315029 3.64130223 276.66646226 3.71875 275 C3.74904297 274.2575 3.77933594 273.515 3.81054688 272.75 C4 271 4 271 5 270 C8 269.875 8 269.875 11 270 C12.51062693 271.51062693 12.19532457 272.89391289 12.28125 275 C12.33732422 276.2065625 12.33732422 276.2065625 12.39453125 277.4375 C12.5 280 12.5 280 12.60546875 282.5625 C12.66154297 283.7690625 12.66154297 283.7690625 12.71875 285 C12.74904297 285.7425 12.77933594 286.485 12.81054688 287.25 C12.81792413 289.02688855 12.81792413 289.02688855 14 290 C15.40348735 290.09860131 16.81180477 290.13078937 18.21875 290.1328125 C19.06824219 290.13410156 19.91773438 290.13539063 20.79296875 290.13671875 C22.13294922 290.13091797 22.13294922 290.13091797 23.5 290.125 C24.39332031 290.12886719 25.28664063 290.13273438 26.20703125 290.13671875 C27.48126953 290.13478516 27.48126953 290.13478516 28.78125 290.1328125 C29.56564453 290.13168457 30.35003906 290.13055664 31.15820312 290.12939453 C33.01752988 290.20107442 33.01752988 290.20107442 34 289 C34.20931897 286.83703727 34.36797069 284.6690529 34.5 282.5 C34.88888889 276.11111111 34.88888889 276.11111111 36 275 C38.9375 274.75 38.9375 274.75 42 275 C45.12340498 279.68510747 44.64033226 284.42515007 45 290 C50.61 290 56.22 290 62 290 C62.02578125 287.95296875 62.0515625 285.9059375 62.078125 283.796875 C62.11985489 281.80775005 62.16172403 279.81862535 62.20751953 277.82958984 C62.23569099 276.45048349 62.25692472 275.07121682 62.27099609 273.69189453 C62.29247545 271.70577051 62.34123132 269.72000091 62.390625 267.734375 C62.41157227 266.54038086 62.43251953 265.34638672 62.45410156 264.11621094 C63.24273268 259.61438287 65.44409772 258.16910679 68.96020508 255.52709961 C69.63978271 255.07343018 70.31936035 254.61976074 71.01953125 254.15234375 C71.78797363 253.63446289 72.55641602 253.11658203 73.34814453 252.58300781 C74.16138184 252.03999023 74.97461914 251.49697266 75.8125 250.9375 C82.16443811 246.64740271 88.45250678 242.29515116 94.625 237.75 C95.25768799 237.28456787 95.89037598 236.81913574 96.54223633 236.33959961 C99.38211187 234.30251856 99.38211187 234.30251856 102 232 C102.29286543 226.06966032 102.31407821 220.13683127 102.35009766 214.19995117 C102.3666558 212.19690328 102.39394394 210.19391445 102.43212891 208.19116211 C102.48684465 205.30811815 102.50876404 202.42646172 102.5234375 199.54296875 C102.55744156 198.20059395 102.55744156 198.20059395 102.59213257 196.83110046 C102.64475292 191.60017761 102.64475292 191.60017761 99.54760742 187.52709961 C98.70689697 187.02315674 97.86618652 186.51921387 97 186 C94.34318307 181.91383171 94.22044913 177.72654003 95 173 C97 169.625 97 169.625 100 167 C101.32658922 166.679051 102.66086839 166.38876835 104 166.125 C106.16814051 165.60986479 106.16814051 165.60986479 108 164 C112.2692742 154.71217468 112.2692742 154.71217468 112 145 C111.40574219 145.81082031 110.81148437 146.62164062 110.19921875 147.45703125 C96.79942602 165.4610376 96.79942602 165.4610376 88.37866211 170.59960938 C85.38864639 173.61693818 85.41149205 175.16605711 85.35800171 179.27110291 C85.37134552 180.08784988 85.38468933 180.90459686 85.3984375 181.74609375 C85.39043121 182.59422134 85.38242493 183.44234894 85.37417603 184.31617737 C85.35111042 187.02377167 85.3605657 189.72986531 85.375 192.4375 C85.3788512 195.14128334 85.37537371 197.84440201 85.35440063 200.54811096 C85.34234123 202.22868401 85.34493196 203.90944362 85.36410522 205.58995056 C85.34213148 210.20337851 85.09422399 213.32805434 82 217 C79.5390625 218.75756836 79.5390625 218.75756836 76.625 220.33984375 C75.55636719 220.92830078 74.48773438 221.51675781 73.38671875 222.12304688 C72.26910156 222.72181641 71.15148437 223.32058594 70 223.9375 C68.91332031 224.53240234 67.82664063 225.12730469 66.70703125 225.74023438 C64.53600352 226.92690724 62.36047044 228.10537625 60.18041992 229.27539062 C58.08631886 230.41093449 56.0051115 231.57063865 53.9387207 232.75585938 C52.98570068 233.29919922 52.03268066 233.84253906 51.05078125 234.40234375 C50.21458252 234.88823975 49.37838379 235.37413574 48.5168457 235.87475586 C44.16924252 237.81850434 39.61938017 238.06654355 35 237 C27.55349356 233.15871858 22.16730834 226.02530788 16.60742188 219.9140625 C11.3148681 214.14553688 11.3148681 214.14553688 4.0546875 212.1796875 C1.37141534 212.50410739 0.21999958 212.83706962 -1.97265625 214.4609375 C-2.33230469 215.09257812 -2.69195312 215.72421875 -3.0625 216.375 C-3.63677734 217.31472656 -3.63677734 217.31472656 -4.22265625 218.2734375 C-5.13684541 219.98836744 -5.13684541 219.98836744 -5 222 C-6.33333333 222.66666667 -7.66666667 223.33333333 -9 224 C-9.99 224.515625 -10.98 225.03125 -12 225.5625 C-18.13324918 228.50134856 -24.90008483 229.24808143 -31.4765625 227.24609375 C-38.95990781 224.05503513 -43.50066901 220.35342773 -47.10546875 212.98046875 C-48.17873902 209.40446343 -47.93371533 206.64609324 -47.625 202.9375 C-47.39526367 198.35775626 -47.39586984 196.70222846 -50.4296875 193.17578125 C-53.44602466 190.72856922 -53.44602466 190.72856922 -56.59375 188.671875 C-57.3878125 188.12015625 -58.181875 187.5684375 -59 187 C-59 186.34 -59 185.68 -59 185 C-57.21335937 185.72703125 -57.21335937 185.72703125 -55.390625 186.46875 C-19.61848882 202.06397478 -19.61848882 202.06397478 17.44921875 200.8828125 C19.53399037 199.97572753 21.61319151 199.05576321 23.6875 198.125 C25.34048096 197.38842163 25.34048096 197.38842163 27.02685547 196.63696289 C46.68152172 187.74002817 65.54615898 177.05202195 82 163 C82.83015625 162.29230469 83.6603125 161.58460938 84.515625 160.85546875 C99.62485121 147.62330898 111.53873567 132.38916063 114.2734375 111.95703125 C115.23973835 91.55321715 102.67362497 68.6074167 89.5625 53.8125 C83.45032146 47.23742026 83.45032146 47.23742026 77 41 C76.67 41 76.34 41 76 41 Z M-96 175 C-96.58350505 177.45709375 -96.58350505 177.45709375 -96 180 C-94.42304368 182.0785608 -94.42304368 182.0785608 -92 183 C-89.26601865 182.29042763 -89.26601865 182.29042763 -87 181 C-86.83318891 178.08347826 -86.83318891 178.08347826 -87 175 C-87.66 174.34 -88.32 173.68 -89 173 C-93.04622502 172.63019987 -93.04622502 172.63019987 -96 175 Z M102 175 C101.55538917 177.8899704 101.61248766 179.38813841 103.1875 181.875 C105.00817822 183.24281865 105.00817822 183.24281865 107.5625 182.875 C110.3261611 182.15610832 110.3261611 182.15610832 112 179 C111.64111965 176.03923709 111.15341979 175.15341979 109 173 C104.95377498 172.63019987 104.95377498 172.63019987 102 175 Z M-38 203 C-38.11031801 207.71122794 -38.05111397 210.25992481 -35 214 C-30.33187744 217.45441069 -26.89511228 218.59394943 -21.08984375 218.3359375 C-18.21995357 217.87460936 -16.24916988 216.81384668 -14 215 C-14 214.67 -14 214.34 -14 214 C-14.81082031 213.79246094 -15.62164062 213.58492187 -16.45703125 213.37109375 C-24.63040354 211.09701229 -31.101866 207.92131404 -38 203 Z " fill="#000000" transform="translate(109,0)"/>
<path d="M0 0 C3.0965287 2.89009346 3.83262735 5.81568369 4 10 C2.65887625 14.27483195 1.54741205 15.66948706 -2.3125 18 C-7.1907592 19.32291775 -9.64061837 18.17969082 -14 16 C-14 15.34 -14 14.68 -14 14 C-14.98742187 14.3609375 -15.97484375 14.721875 -16.9921875 15.09375 C-18.28639791 15.56266681 -19.58067206 16.03140769 -20.875 16.5 C-21.52597656 16.73847656 -22.17695312 16.97695313 -22.84765625 17.22265625 C-27.7734375 19 -27.7734375 19 -30 19 C-29.98839844 19.99902344 -29.97679687 20.99804688 -29.96484375 22.02734375 C-29.95582031 23.31769531 -29.94679687 24.60804687 -29.9375 25.9375 C-29.92589844 27.22527344 -29.91429687 28.51304688 -29.90234375 29.83984375 C-30 33 -30 33 -31 34 C-34.73811016 34.13620644 -38.47030306 34.24796874 -42.2109375 34.25390625 C-46.65103309 34.39130334 -48.43724199 34.52656866 -51.953125 37.484375 C-52.62859375 38.31453125 -53.3040625 39.1446875 -54 40 C-56.90295805 41.45147903 -58.77261779 41.37239025 -62 41 C-65.33014331 38.98934744 -67.36952397 37.73731173 -68.703125 34.0625 C-69.3224626 30.50804073 -69.20571213 28.47313789 -67.75 25.125 C-66 23 -66 23 -63 21 C-56.05322129 20.32773109 -56.05322129 20.32773109 -52.0625 22.875 C-50 25 -50 25 -49 27 C-45.95418731 27.46954261 -45.95418731 27.46954261 -42.4375 27.625 C-40.313125 27.74875 -38.18875 27.8725 -36 28 C-36 23.71 -36 19.42 -36 15 C-22.72413793 8 -22.72413793 8 -16 8 C-15.9175 7.2575 -15.835 6.515 -15.75 5.75 C-14.83947526 2.41140928 -13.68232473 1.14585979 -11 -1 C-7.15728249 -2.855105 -3.82057132 -1.45876359 0 0 Z " fill="#000000" transform="translate(110,37)"/>
<path d="M0 0 C4.3670845 1.11284779 6.17318074 3.5136871 8.91015625 6.9609375 C9.65652344 7.8281543 9.65652344 7.8281543 10.41796875 8.71289062 C12.54089777 11.29364911 13.95048598 13.24090607 14.48046875 16.57421875 C14.03515625 18.7734375 14.03515625 18.7734375 12.03515625 20.7734375 C9.59765625 21.0859375 9.59765625 21.0859375 7.03515625 20.7734375 C6.01411074 19.79493555 5.01454415 18.79363323 4.03515625 17.7734375 C1.67053133 16.76708504 1.67053133 16.76708504 -0.96484375 16.7734375 C-3.24802755 17.9150294 -5.15497058 18.96356433 -6.96484375 20.7734375 C-9.40234375 20.9609375 -9.40234375 20.9609375 -11.96484375 20.7734375 C-12.62484375 20.1134375 -13.28484375 19.4534375 -13.96484375 18.7734375 C-13.78564466 13.96919528 -11.08964296 10.64361252 -8.27734375 6.9609375 C-7.6440918 6.0647168 -7.6440918 6.0647168 -6.99804688 5.15039062 C-4.86644776 2.33719421 -3.45011776 0.90003072 0 0 Z " fill="#000000" transform="translate(116.96484375,237.2265625)"/>
<path d="M0 0 C0.65097656 0.268125 1.30195312 0.53625 1.97265625 0.8125 C5.7637045 2.29956925 9.59540797 3.65142903 13.4375 5 C14.17548828 5.26039063 14.91347656 5.52078125 15.67382812 5.7890625 C19.77034806 7.23103752 23.87522476 8.64032766 28 10 C27.67 10.99 27.34 11.98 27 13 C17.34890472 13.83922568 10.05176769 9.49158103 2.71484375 3.5859375 C1 2 1 2 0 0 Z " fill="#949493" transform="translate(70,201)"/>
</svg>
